<svg xmlns="http://www.w3.org/2000/svg" width="99.819" height="170.96" viewBox="0 0 99.819 170.96">
  <g id="Group_9913" data-name="Group 9913" transform="translate(-1218.72 -311.04)">
    <path id="Path_16053" data-name="Path 16053" d="M1316.22,353.91c-10.15-.08-20.3-.07-30.46-.06H1274c-15.86,0-32.87-.08-49.77-.71a2.32,2.32,0,0,1-2.242-2.4l0-.044c.15-3.08.29-6.74.29-10.45,0-3.3-.11-6.22-.35-8.92a2.331,2.331,0,0,1,2.117-2.525l.073-.005c26.32-1.42,47.78-2.08,67.54-2.08h24.53a2.32,2.32,0,0,1,2.27,2.34c0,2.25-.07,4.5-.12,6.74-.07,2.46-.13,4.92-.13,7.38,0,3.1.1,5.68.32,8.13a2.33,2.33,0,0,1-2.11,2.531q-.105.009-.21.009Zm-18.72-4.73q8.119,0,16.21.05c-.1-1.84-.15-3.79-.15-6,0-2.5.06-5,.13-7.5,0-1.44.07-2.89.1-4.33h-22.12c-19.08,0-39.76.62-64.91,1.94.13,2.15.19,4.44.19,6.93,0,2.89-.08,5.74-.19,8.32,16,.55,32.17.63,47.25.63h11.75Z"/>
    <path id="Path_16054" data-name="Path 16054" d="M1228,331.85a2.391,2.391,0,0,1-1-.21,2.32,2.32,0,0,1-1.154-3.071l0-.009a14.528,14.528,0,0,0,1.19-7.57c-.1-2.05-.21-4.18,1.47-5.95,3.26-3.43,10.31-4,53.91-4,3.14,0,9.6.2,22.53,1.15l.65.05h2.12c5.14,0,7.33,2.26,7.33,7.56v2.82a10.343,10.343,0,0,0,.23,2.5,2.33,2.33,0,0,1-4.478,1.29c-.016-.056-.03-.113-.042-.17a15.407,15.407,0,0,1-.37-3.62V319.8c0-2.82-.23-2.9-2.67-2.9h-2.24l-.87-.06c-12.79-.94-19.12-1.14-22.19-1.14-29.86,0-48.28.12-50.53,2.5-.29.3-.27,1.15-.2,2.51a19,19,0,0,1-1.6,9.72A2.33,2.33,0,0,1,1228,331.85Z"/>
    <path id="Path_16055" data-name="Path 16055" d="M1226.1,422.4h-.1a2.341,2.341,0,0,1-2.21-2.45c.29-5.68.66-11.44,1-17,.79-12.29,1.6-25,1.6-37.49,0-4.53-.11-8.72-.32-12.84a2.333,2.333,0,0,1,4.66-.23c.21,4.19.31,8.46.31,13.07,0,12.63-.81,25.42-1.6,37.79-.35,5.55-.72,11.29-1,16.95A2.34,2.34,0,0,1,1226.1,422.4Z"/>
    <path id="Path_16056" data-name="Path 16056" d="M1310.72,418.48a2.34,2.34,0,0,1-2.33-2.23c-.12-2.73-.26-5.45-.39-8.17-.44-8.77-.9-17.84-.9-26.8,0-7.57.63-17.81.87-21.66,0-.7.07-1.14.07-1.27a26.978,26.978,0,0,0-.38-4.67,2.33,2.33,0,1,1,4.54-1.052c.017.074.03.148.04.222a30.719,30.719,0,0,1,.46,5.55c0,.09,0,.62-.08,1.5-.24,3.82-.86,14-.86,21.38,0,8.84.45,17.85.89,26.57q.21,4.08.4,8.19a2.319,2.319,0,0,1-2.205,2.429h-.015Z"/>
    <path id="Path_16057" data-name="Path 16057" d="M1221.8,439.42a2.33,2.33,0,0,1-2.29-1.93,58.369,58.369,0,0,1-.59-10c0-2.19,0-4.45-.19-6.64a2.273,2.273,0,0,1,.6-1.76,2.331,2.331,0,0,1,1.71-.76c4.26,0,8-.18,11.94-.36,4.94-.23,10-.46,17-.46,6.72,0,13.53.2,20.11.38s13.33.39,20,.39a213.248,213.248,0,0,0,24.17-1.19,2.323,2.323,0,0,1,1.82.59,2.278,2.278,0,0,1,.77,1.75v5.52c0,4,.1,7,.33,9.78a2.341,2.341,0,0,1-.58,1.73,2.309,2.309,0,0,1-1.64.78c-16.75.76-75.32,1.91-77.43,1.91h-7.84a71.3,71.3,0,0,0-7.65.33Zm1.71-16.47c.06,1.53.06,3,.06,4.53a68.391,68.391,0,0,0,.24,7.1c2.18-.14,4.23-.16,5.89-.16h7.79c2,0,55.6-1.05,74.84-1.8-.12-2.26-.18-4.74-.18-7.74v-3c-6.62.65-13.71.95-22.08.95-6.71,0-13.52-.2-20.11-.39s-13.33-.38-20-.38c-6.87,0-11.92.23-16.8.45-3.16.25-6.28.39-9.65.49Z"/>
    <path id="Path_16058" data-name="Path 16058" d="M1284.24,482c-5.92,0-11.9-.35-17.69-.68-2.32-.13-4.64-.27-7-.38a2.32,2.32,0,0,1-2.2-2.05,35.257,35.257,0,0,1-.23-4.32c0-1.27,0-2.54.09-3.81s.09-2.44.09-3.66a47.894,47.894,0,0,0-.37-5.35q-.09-.84-.12-1.32c-7-4.62-13.72-9-20.84-13.7l-7.77-5.08c-.34,0-.66.06-1,.06a2.33,2.33,0,1,1-.3-4.65,2.22,2.22,0,0,1,.3,0,3.347,3.347,0,0,0,.47,0,3.919,3.919,0,0,1,2.68.47l8.17,5.34c7.49,4.9,14.57,9.53,21.92,14.43a2.328,2.328,0,0,1,1,2v.9a3.9,3.9,0,0,0,.1,1,52.9,52.9,0,0,1,.4,5.86c0,1.28,0,2.55-.1,3.82s-.08,2.44-.08,3.65v1.82l5,.28c5.5.31,11.18.64,16.75.67-.07-6.64-.25-11.92-.59-16.89a2.323,2.323,0,0,1,.88-2c5.74-4.54,11.19-9.53,16.47-14.34,2.75-2.52,5.59-5.11,8.46-7.64a2.33,2.33,0,0,1,3.247,3.343c-.053.051-.109.1-.167.147-2.84,2.51-5.67,5.09-8.4,7.58-5,4.61-10.25,9.37-15.76,13.8.33,5.29.49,11,.53,18.28a2.339,2.339,0,0,1-2.3,2.35Z"/>
    <path id="Path_16059" data-name="Path 16059" d="M1232,431.12c-.52,0-1,0-1.55-.05a12.651,12.651,0,0,0-1.32-.05,2.33,2.33,0,0,1,0-4.66c.51,0,1,0,1.55.05a11.582,11.582,0,0,0,1.32,0,5.121,5.121,0,0,0,2-.31,2.33,2.33,0,0,1,1.74,4.32A9.993,9.993,0,0,1,1232,431.12Z"/>
    <path id="Path_16060" data-name="Path 16060" d="M1253.66,430.64h-8.8a2.33,2.33,0,0,1,0-4.66h8.8a2.33,2.33,0,0,1,0,4.66Z"/>
    <path id="Path_16061" data-name="Path 16061" d="M1265.53,431.41a2.33,2.33,0,1,1,0-4.66,15.705,15.705,0,0,0,2.32-.23,15.2,15.2,0,0,1,4.58-.12,2.33,2.33,0,0,1-.77,4.59,10.637,10.637,0,0,0-3.14.14A19.984,19.984,0,0,1,1265.53,431.41Z"/>
    <path id="Path_16062" data-name="Path 16062" d="M1291.57,430.64h-7.27a2.33,2.33,0,1,1,0-4.66h7.27a2.33,2.33,0,1,1,0,4.66Z"/>
    <path id="Path_16063" data-name="Path 16063" d="M1301.53,430.26a2.33,2.33,0,0,1-1-4.42,7.521,7.521,0,0,1,3.44-.71h1.99a2.7,2.7,0,0,0,1.6-.34,2.33,2.33,0,1,1,2.639,3.841l-.059.039a7.258,7.258,0,0,1-4.18,1.12h-1.99a3.068,3.068,0,0,0-1.35.22A2.317,2.317,0,0,1,1301.53,430.26Z"/>
    <path id="Path_16064" data-name="Path 16064" d="M1239.91,343.06a12.856,12.856,0,0,1-1.89-.13,2.33,2.33,0,1,1,.494-4.634c.056.006.111.014.166.024a15.5,15.5,0,0,0,3.92-.14,27.442,27.442,0,0,1,3.4-.27,2.33,2.33,0,0,1,0,4.66,25.046,25.046,0,0,0-2.83.23A25.6,25.6,0,0,1,1239.91,343.06Z"/>
    <path id="Path_16065" data-name="Path 16065" d="M1259,342.19h-5.36a2.33,2.33,0,0,1,0-4.66H1259a2.33,2.33,0,0,1,0,4.66Z"/>
    <path id="Path_16066" data-name="Path 16066" d="M1280.47,342.57h-5.75a2.33,2.33,0,0,1,0-4.66h5.75a2.33,2.33,0,1,1,0,4.66Z"/>
    <path id="Path_16067" data-name="Path 16067" d="M1293.87,342.57a2.33,2.33,0,0,1-.33-4.63,22.045,22.045,0,0,1,3.87-.1c.51,0,1,.05,1.53.05a8.515,8.515,0,0,0,2.33-.27,2.33,2.33,0,0,1,1.28,4.48,13.136,13.136,0,0,1-3.61.45c-.58,0-1.15,0-1.72-.05a18.438,18.438,0,0,0-3,.05Z"/>
  </g>
</svg>
