<svg xmlns="http://www.w3.org/2000/svg" width="133.838" height="272.33" viewBox="0 0 133.838 272.33">
  <g id="Group_9917" data-name="Group 9917" transform="translate(-476.459 -292.43)">
    <g id="Group_9902" data-name="Group 9902" transform="translate(104.891 47.17)">
      <path id="Path_15944" data-name="Path 15944" d="M389.329,442.786a1.35,1.35,0,0,1-.347-.045,8.109,8.109,0,0,0-2-.211,13.826,13.826,0,0,0-1.676.068,15.892,15.892,0,0,1-1.82.068c-3.965,0-4.8-1.352-4.8-2.485,0-1.45-.128-2.96-.249-4.418s-.249-3.021-.249-4.531c0-8.141,3.074-9.772,8.035-9.772h3.1a1.42,1.42,0,0,1,0,2.839h-1.51c-.514,0-1.05-.038-1.571-.038-3.021,0-5.2,0-5.2,6.94,0,1.4.121,2.809.242,4.312.113,1.337.227,2.711.257,4.093a8.459,8.459,0,0,0,1.963.2,15.26,15.26,0,0,0,1.661-.06,17.961,17.961,0,0,1,1.835-.068,10.779,10.779,0,0,1,2.688.295,1.42,1.42,0,0,1-.34,2.794Z" transform="translate(0 -43.139)"/>
      <path id="Path_15945" data-name="Path 15945" d="M436.359,363.687h-.076a1.42,1.42,0,0,1-1.346-1.491l0-.02c.053-.929.113-1.858.174-2.787.113-1.586.219-3.217.249-4.81a1.412,1.412,0,0,1,1.412-1.39h1.389c3.058,0,6.14.053,9.122.106s6.041.113,9.062.113c2.266,0,4.3,0,6.207-.1a1.51,1.51,0,0,1,1.019.385,1.45,1.45,0,0,1,.446.989c.038,1.155.106,2.3.174,3.451s.151,2.394.189,3.587a1.42,1.42,0,1,1-2.839.083c0-1.163-.106-2.326-.181-3.5-.038-.7-.083-1.412-.121-2.122q-2.265.057-4.893.053c-3.021,0-6.124-.053-9.062-.106s-6.041-.106-9.062-.106c-.06,1.2-.136,2.394-.219,3.564-.06.906-.121,1.82-.166,2.734A1.427,1.427,0,0,1,436.359,363.687Z" transform="translate(-13.893 -26.425)"/>
      <path id="Path_15946" data-name="Path 15946" d="M457.118,470.841c-4.07,0-8.413-.121-13.268-.37-3.987-.211-8-.211-11.886-.219-4.138,0-8.42,0-12.71-.257a1.42,1.42,0,0,1,.159-2.832c4.214.242,8.45.242,12.551.249,3.919,0,7.975,0,12.03.219,4.81.249,9.1.37,13.125.37,20.948,0,40.334-2.794,40.334-23.078V433.1c.053-39.941.076-56.471-6.494-63.057-4.584-4.584-13.019-4.584-27-4.584-32.963,0-49.169.612-57.785,2.19-8.813,1.616-8.813,4.123-8.813,7.295l1.782,76.1c.378,8.307,5.06,13,15.171,15.164a1.421,1.421,0,0,1-.6,2.779c-11.275-2.417-16.976-8.254-17.407-17.852l-1.782-76.144c0-10.338,5.566-12.355,69.476-12.355,14.711,0,23.591,0,29.006,5.422,7.4,7.416,7.378,24.286,7.325,65.058v11.818C500.291,467.759,478.467,470.841,457.118,470.841Z" transform="translate(-4.001 -28.738)"/>
      <path id="Path_15947" data-name="Path 15947" d="M444.232,512.078c-20.593,0-22.844-.144-24.1-1.51a2.582,2.582,0,0,1-.581-2.107v-2.333a7.892,7.892,0,0,0-.06-1.042,1.42,1.42,0,0,1,1.2-1.609,1.435,1.435,0,0,1,1.609,1.208,10.122,10.122,0,0,1,.083,1.442v2.515c1.744.536,9.583.566,21.855.566,16.818,0,33.356-.113,35.025-1.45v-1.9c0-.325-.038-.755-.038-1.125a9.064,9.064,0,0,1,.068-1.163,1.42,1.42,0,0,1,2.817.355,5.785,5.785,0,0,0-.045.808v.989c0,.325.038.755.038,1.1v.378a3.112,3.112,0,0,1-.755,2.485C479.7,511.428,476.078,512.078,444.232,512.078Z" transform="translate(-10.107 -62.945)"/>
      <path id="Path_15948" data-name="Path 15948" d="M421.951,547.931h-.106a1.412,1.412,0,0,1-1.306-1.51c.619-8.058.672-16.161.672-25.17v-2.545a1.42,1.42,0,1,1,2.832-.207,1.361,1.361,0,0,1,0,.207v2.53c0,9.062-.045,17.233-.672,25.389A1.42,1.42,0,0,1,421.951,547.931Z" transform="translate(-10.367 -66.575)"/>
      <path id="Path_15949" data-name="Path 15949" d="M500.579,548.188a1.42,1.42,0,0,1-1.42-1.39c-.076-3.466-.106-6.978-.128-10.376-.053-6.8-.113-13.8-.581-20.7a1.42,1.42,0,0,1,2.832-.189c.476,6.985.529,14.039.581,20.865,0,3.391.053,6.887.136,10.338a1.435,1.435,0,0,1-1.42,1.45Z" transform="translate(-29.443 -65.857)"/>
      <path id="Path_15950" data-name="Path 15950" d="M446.692,543.205a1.4,1.4,0,0,1-1.11-.536c-1.994-2.507-14.635-15.451-17.641-17.965a1.419,1.419,0,0,1-1.669-1.994,1.911,1.911,0,0,1,1.744-1.08c.7,0,1.216,0,9.915,8.828,3.919,3.972,8.707,8.979,9.87,10.444a1.42,1.42,0,0,1-1.11,2.3Z" transform="translate(-11.736 -67.664)"/>
      <path id="Path_15951" data-name="Path 15951" d="M460.29,539.815h-.143a1.412,1.412,0,0,1-1.27-1.541l0-.014c.7-7.023.8-14.416.8-21.356a1.42,1.42,0,0,1,2.832,0c0,7.016-.1,14.492-.808,21.643A1.42,1.42,0,0,1,460.29,539.815Z" transform="translate(-19.753 -66.185)"/>
      <path id="Path_15952" data-name="Path 15952" d="M487.753,551.095a1.393,1.393,0,0,1-.906-.332A144.641,144.641,0,0,1,470.6,535a1.42,1.42,0,1,1,2.054-1.96c.029.03.057.062.083.1a142.689,142.689,0,0,0,15.919,15.451,1.42,1.42,0,0,1-.906,2.507Z" transform="translate(-22.529 -70.35)"/>
      <path id="Path_15953" data-name="Path 15953" d="M474.54,522.52a1.42,1.42,0,1,1,0-2.839h0a45.449,45.449,0,0,0,11.01-1.374,1.42,1.42,0,1,1,.687,2.756h0A48.484,48.484,0,0,1,474.54,522.52Z" transform="translate(-23.242 -66.84)"/>
      <path id="Path_15954" data-name="Path 15954" d="M510.673,475.02c-1.8,0-3.61,0-5.415-.068-1.435,0-2.87-.053-4.312-.068a1.412,1.412,0,0,1-1.4-1.337c-.076-1.254-.113-2.515-.151-3.776-.045-1.654-.1-3.361-.242-5.014a1.419,1.419,0,0,1,1.326-1.507l.063,0,6.562-.113c3.157-.045,6.306-.1,9.492-.174a1.389,1.389,0,0,1,1.449,1.327v.01c.076,1.284.189,2.56.295,3.836.151,1.707.3,3.466.362,5.226a1.412,1.412,0,0,1-1.314,1.457C515.378,474.952,513.248,475.02,510.673,475.02Zm-8.367-2.968,3.021.053c1.782.038,3.564.076,5.354.076,1.918,0,3.58-.045,5.128-.128-.076-1.238-.181-2.485-.287-3.7-.076-.853-.151-1.707-.211-2.56-2.734.068-5.445.106-8.156.151l-5.1.068c.068,1.223.106,2.454.143,3.655C502.253,470.481,502.275,471.3,502.306,472.052Z" transform="translate(-29.614 -53.299)"/>
      <path id="Path_15955" data-name="Path 15955" d="M455.09,456.7c-15.7,0-26.25-13.593-26.25-26.212,0-9.432,5.143-18.207,13.087-22.361a26.316,26.316,0,0,1,12.332-2.968c13.4,0,27.866,9.606,27.866,25.132C482.125,440.9,474.928,456.7,455.09,456.7Zm-.831-48.7a23.5,23.5,0,0,0-11.018,2.643c-7.023,3.67-11.562,11.463-11.562,19.846,0,11.29,9.409,23.372,23.41,23.372,19.853,0,24.165-17.014,24.165-23.569C479.293,416.518,466.3,408,454.259,408Z" transform="translate(-12.401 -39.148)"/>
      <path id="Path_15956" data-name="Path 15956" d="M460.758,444.852c-2.824,0-9.6-2.643-9.6-9.183,0-4.8,4.81-9.009,10.293-9.009a9.348,9.348,0,0,1,8.171,4.629,7.05,7.05,0,0,1,1.1,3.64C470.726,440.781,465.47,444.852,460.758,444.852Zm.695-15.353c-3.9,0-7.461,2.938-7.461,6.17,0,4.758,5.332,6.351,6.8,6.351a7.308,7.308,0,0,0,7.129-7.091,4.258,4.258,0,0,0-.619-2.069,7.075,7.075,0,0,0-3.549-3.021A6.806,6.806,0,0,0,461.453,429.5Z" transform="translate(-17.865 -44.412)"/>
      <path id="Path_15957" data-name="Path 15957" d="M469.18,426.044a1.42,1.42,0,0,1-.884-2.53,23.457,23.457,0,0,0,4.493-5.4,31.777,31.777,0,0,1,3.685-4.75,1.42,1.42,0,0,1,2.009,2.009,29.39,29.39,0,0,0-3.345,4.335,25.673,25.673,0,0,1-5.067,6.041A1.427,1.427,0,0,1,469.18,426.044Z" transform="translate(-21.93 -41.055)"/>
      <path id="Path_15958" data-name="Path 15958" d="M446.188,436.033a17.3,17.3,0,0,1-3.776-.566,55.928,55.928,0,0,0-7.454-1.02c-1.261-.113-2.552-.234-3.844-.393a1.42,1.42,0,0,1,.355-2.817c1.238.159,2.515.272,3.776.385a58.089,58.089,0,0,1,7.74,1.057,15.23,15.23,0,0,0,3.225.514,5.258,5.258,0,0,0,.755-.053,1.416,1.416,0,1,1,.461,2.794A7.319,7.319,0,0,1,446.188,436.033Z" transform="translate(-12.659 -45.531)"/>
      <path id="Path_15959" data-name="Path 15959" d="M468.287,464.516a1.42,1.42,0,0,1-1.4-1.208l-.272-1.79c-.612-4.048-1.238-8.231-1.661-12.4a1.42,1.42,0,0,1,2.824-.279c.408,4.093,1.012,8.058,1.646,12.249l.272,1.8A1.428,1.428,0,0,1,468.5,464.5Z" transform="translate(-21.24 -49.54)"/>
      <path id="Path_15960" data-name="Path 15960" d="M396.861,381.5a1.42,1.42,0,0,1-.143-2.832c8.186-.838,62.067-1.8,62.52-1.8,5.973,0,12.015.151,17.852.3s11.781.31,17.656.31a1.42,1.42,0,1,1,.207,2.832,1.346,1.346,0,0,1-.207,0c-5.913,0-11.924-.151-17.731-.3s-11.841-.31-17.777-.31c-.453,0-54.372.982-62.233,1.79Z" transform="translate(-4.224 -32.222)"/>
      <path id="Path_15961" data-name="Path 15961" d="M496.075,396.414l-98.595-.234a1.42,1.42,0,1,1,0-2.839h0l98.6.234a1.42,1.42,0,1,1,0,2.839Z" transform="translate(-4.375 -36.255)"/>
      <path id="Path_15962" data-name="Path 15962" d="M408.837,389.132a1.9,1.9,0,0,1-1.92-1.87,2.169,2.169,0,0,1,1.286-2,2.068,2.068,0,0,1,.657-.106,2.267,2.267,0,0,1,1.352.408,1.776,1.776,0,0,1,.755,1.435A2.2,2.2,0,0,1,408.837,389.132Zm-.279-2.8a.635.635,0,0,0-.461.642,1.012,1.012,0,0,0,.755,1.027.655.655,0,0,0,.234-.045.846.846,0,0,0-.264-1.661,1.15,1.15,0,0,0-.279,0l.1.279Z" transform="translate(-7.033 -34.252)"/>
      <path id="Path_15963" data-name="Path 15963" d="M423.049,389.26a1.956,1.956,0,0,1-1.979-1.82,1.558,1.558,0,0,1,.43-1.072,1.448,1.448,0,0,1,.755-1.186,1.426,1.426,0,0,1,1.412.083,1.843,1.843,0,0,1,1.669,1.888A2.326,2.326,0,0,1,423.049,389.26Z" transform="translate(-10.498 -34.221)"/>
      <path id="Path_15964" data-name="Path 15964" d="M443.8,388.754h-.7a1.661,1.661,0,0,1-1.706-1.615c0-.023,0-.046,0-.069a2.931,2.931,0,0,1,.053-.513v.068a1.661,1.661,0,0,1,1.608-1.713h.076a2.737,2.737,0,0,1,.483.053h.423a1.8,1.8,0,0,1,1.914,1.673c0,.044,0,.088,0,.132a1.909,1.909,0,0,1,0,.347A2.009,2.009,0,0,1,443.8,388.754ZM443.557,386a.911.911,0,0,0-.438.581.709.709,0,0,0,0,.113,1.08,1.08,0,0,0,.506.891,1.24,1.24,0,0,0,.6-.665,1.222,1.222,0,0,0-.649-.929v.355Z" transform="translate(-15.473 -34.191)"/>
      <path id="Path_15965" data-name="Path 15965" d="M464.46,389.365a2,2,0,0,1-1.51-.634,2.265,2.265,0,0,1-.559-1.563v-.076a3.17,3.17,0,0,1-.091-.695,1.835,1.835,0,0,1,1.842-1.828c.056,0,.112,0,.167.008a1.4,1.4,0,0,1,.665.166,1.822,1.822,0,0,1,.506-.068c1.782,0,2.266,1.163,2.266,1.85C467.737,387.991,465.887,389.365,464.46,389.365Z" transform="translate(-20.593 -34.107)"/>
      <path id="Path_15966" data-name="Path 15966" d="M488.887,388.87a4.118,4.118,0,0,1-.529,0h-.181a1.729,1.729,0,0,1-1.766-1.691v-.038a2.107,2.107,0,0,1,1.163-1.8,3.208,3.208,0,0,1,.808-.317,1.874,1.874,0,0,1,1.2-.476,1.8,1.8,0,0,1,1.715,1.89v.02a2.394,2.394,0,0,1-2.379,2.409Z" transform="translate(-26.496 -34.103)"/>
      <path id="Path_15967" data-name="Path 15967" d="M510.864,389.043a2.435,2.435,0,0,1-1.17-.31,1.774,1.774,0,0,1-.944-1.563,1.987,1.987,0,0,1,1.593-1.873,1.412,1.412,0,0,1,1.05-.461,2.024,2.024,0,0,1,2.207,1.822c0,.022,0,.044.005.066A2.548,2.548,0,0,1,510.864,389.043Z" transform="translate(-31.965 -34.171)"/>
      <path id="Path_15968" data-name="Path 15968" d="M532.065,411.577a1.42,1.42,0,0,1-.408-2.779,8.187,8.187,0,0,1,2.432-.3h2.3a6.006,6.006,0,0,0,1.9-.242c.1-1.163.325-3.776.853-9.908l.408-4.607c0-.559-.174-1.85-4.765-1.85-.687,0-1.382,0-2.069.053s-1.42.06-2.107.06a1.42,1.42,0,1,1,0-2.839c.649,0,1.314,0,1.986-.053s1.465-.06,2.19-.06c5.044,0,7.6,1.6,7.6,4.75,0,.06,0,.06-.408,4.8-.393,4.531-.929,10.633-.936,10.708a1.4,1.4,0,0,1-.68,1.1,7.491,7.491,0,0,1-3.965.936h-2.3a5.5,5.5,0,0,0-1.616.189A1.517,1.517,0,0,1,532.065,411.577Z" transform="translate(-36.967 -35.204)"/>
      <path id="Path_15969" data-name="Path 15969" d="M450.4,290.789c-11.954,0-22.844-11.078-22.844-23.237,0-10.036,6.683-19.03,15.9-21.379a24.208,24.208,0,0,1,3.663-.755c1.057-.106,2.115-.159,3.134-.159,13,0,22.081,8.5,22.081,20.677C472.334,275.973,465.364,290.789,450.4,290.789Zm-6.427-42.576c-8.163,2.077-14.348,10.391-14.348,19.34,0,11.063,9.893,21.145,20.745,21.145a18.01,18.01,0,0,0,14.93-7.9,26.673,26.673,0,0,0,4.9-14.824c0-11.109-8.027-18.57-19.982-18.57-.951,0-1.941.045-2.93.143a22.028,22.028,0,0,0-3.315.665Z" transform="translate(-12.087)"/>
      <path id="Path_15970" data-name="Path 15970" d="M455.147,279.632h-.393c-4.04,0-6.155-2.266-6.155-4.531,0-2.039,2.454-5.686,8.2-12.2l.468-.536a1.4,1.4,0,0,1,2.726.551,13.235,13.235,0,0,0-.559,4.244c0,.755,0,1.6.068,2.386s.06,1.639.06,2.462c0,3.481-.491,5.528-1.609,6.638A3.684,3.684,0,0,1,455.147,279.632Zm2.266-14.19c-5.8,6.691-6.7,8.934-6.7,9.689,0,1.163,1.42,2.394,4.055,2.394h.174c.755,0,1.178,0,1.51-.34.453-.446.989-1.707.989-5.143,0-.755,0-1.593-.068-2.371s-.06-1.646-.06-2.477c.023-.627.038-1.208.083-1.752Z" transform="translate(-17.239 -3.946)"/>
      <path id="Path_15971" data-name="Path 15971" d="M429.249,273.016a1.05,1.05,0,0,1,0-2.1h5.047v-.159c0-10.723,7.129-17.928,17.731-17.928,10.859,0,11.939,12.256,12.151,17.611,1.186,0,2.379.083,3.542.143s2.266.113,3.406.143a1.041,1.041,0,0,1,1.02,1.064v.008a1.05,1.05,0,0,1-1.072,1.027h0c-1.148,0-2.3-.091-3.459-.143-1.473-.076-3.021-.143-4.463-.159a1.05,1.05,0,0,1-1.035-1.02c-.362-11.463-3.474-16.614-10.089-16.614-9.492,0-15.632,6.215-15.632,15.859V271.9a1.032,1.032,0,0,1-1.035,1.08h-1.79Z" transform="translate(-12.244 -1.853)"/>
      <path id="Path_15972" data-name="Path 15972" d="M452.7,311.52c-4.274,0-8.843-1.359-8.843-5.173a14.793,14.793,0,0,1,.295-2.492,11.509,11.509,0,0,0,.257-1.994,1.05,1.05,0,0,1,2.1,0v0a13.689,13.689,0,0,1-.287,2.371,13.016,13.016,0,0,0-.264,2.115c0,2.424,4.236,3.074,6.744,3.074,1.8,0,7.287,0,8.4-1.118.264-.264.287-.657.279-1.556v-.242a18.133,18.133,0,0,0-.816-4.6,1.05,1.05,0,0,1,2-.635q.012.042.023.084a19.512,19.512,0,0,1,.9,5.15v.234a3.86,3.86,0,0,1-.9,3.021C461.335,311.052,458.654,311.52,452.7,311.52Z" transform="translate(-16.078 -13.534)"/>
      <path id="Path_15973" data-name="Path 15973" d="M460.381,346.069a1.049,1.049,0,0,1-1.05-1.05V345l.045-3.776v-3.746l-.091-7.5c-.076-4.75-.1-9.817.317-14.892a1.05,1.05,0,1,1,2.095.135l0,.039c-.4,4.946-.385,9.983-.3,14.688l.083,7.514v3.791l-.045,3.776A1.05,1.05,0,0,1,460.381,346.069Z" transform="translate(-19.844 -16.856)"/>
      <path id="Path_15974" data-name="Path 15974" d="M453.422,345.791a1.057,1.057,0,0,1-1.05-1.065h0l.045-3.693V337.31l-.083-7.5c-.083-4.848-.1-10.059.325-15.315a1.053,1.053,0,1,1,2.1.174c-.423,5.165-.408,10.316-.325,15.1l.083,7.514v3.768l-.053,3.693A1.049,1.049,0,0,1,453.422,345.791Z" transform="translate(-18.142 -16.715)"/>
    </g>
    <g id="Group_9905" data-name="Group 9905" transform="translate(99.766 -22.12)">
      <path id="Path_15984" data-name="Path 15984" d="M390.74,532a1.88,1.88,0,0,1-1.88-1.88h0V522a1.88,1.88,0,0,1,3.76,0v8.14A1.88,1.88,0,0,1,390.74,532Z"/>
      <path id="Path_15985" data-name="Path 15985" d="M390.74,551.45a1.88,1.88,0,0,1-1.86-1.61,15.96,15.96,0,0,1-.14-2.26,35.98,35.98,0,0,1,.46-5.16,1.88,1.88,0,0,1,3.739.4c-.005.045-.011.09-.019.134a33.265,33.265,0,0,0-.43,4.63,12.986,12.986,0,0,0,.11,1.73,1.86,1.86,0,0,1-1.563,2.116l-.027,0A1.223,1.223,0,0,1,390.74,551.45Z"/>
      <path id="Path_15986" data-name="Path 15986" d="M379.5,539a9.686,9.686,0,0,1-1.24-.08,1.88,1.88,0,0,1,.54-3.72,9.684,9.684,0,0,0,2.75-.16,14.086,14.086,0,0,1,3.83-.15,1.88,1.88,0,0,1-.453,3.733l-.087-.013a9.649,9.649,0,0,0-2.75.15A17.845,17.845,0,0,1,379.5,539Z"/>
      <path id="Path_15987" data-name="Path 15987" d="M393.56,539.24a1.88,1.88,0,0,1-.31-3.73,35.558,35.558,0,0,1,5.95-.34,1.88,1.88,0,0,1,0,3.76,31.983,31.983,0,0,0-5.33.29Z"/>
    </g>
    <g id="Group_9906" data-name="Group 9906" transform="translate(191.986 74.88)">
      <path id="Path_15988" data-name="Path 15988" d="M367.31,477.35a1.88,1.88,0,0,1-1.88-1.87V467a1.88,1.88,0,0,1,3.76,0v8.46a1.88,1.88,0,0,1-1.87,1.89Z"/>
      <path id="Path_15989" data-name="Path 15989" d="M367,489.88a1.7,1.7,0,0,1-.59-.1,1.88,1.88,0,0,1-1.191-2.377v0a17.791,17.791,0,0,0,.53-5.35,1.88,1.88,0,0,1,3.75-.274,1.793,1.793,0,0,1,0,.274,20.947,20.947,0,0,1-.72,6.54A1.87,1.87,0,0,1,367,489.88Z"/>
      <path id="Path_15990" data-name="Path 15990" d="M358.16,480.75a4.87,4.87,0,0,1-2.9-.93,1.881,1.881,0,1,1,2.19-3.06c.55.4,1.25.19,2.18-.05a7.4,7.4,0,0,1,3.81-.22,1.88,1.88,0,1,1-1,3.61,4.192,4.192,0,0,0-1.83.24A9.434,9.434,0,0,1,358.16,480.75Z"/>
      <path id="Path_15991" data-name="Path 15991" d="M380.46,479.86H373a1.88,1.88,0,1,1,0-3.76h7.51a1.88,1.88,0,1,1,0,3.76Z"/>
    </g>
  </g>
</svg>
