<svg xmlns="http://www.w3.org/2000/svg" width="53.451" height="75.98" viewBox="0 0 53.451 75.98">
  <g id="Group_9903" data-name="Group 9903" transform="translate(-650.359 -272.02)">
    <path id="Path_15975" data-name="Path 15975" d="M667.68,348c-9.44,0-15.36-9.89-17-19.68a1.88,1.88,0,0,1,3.7-.64c1.41,8.25,6.08,16.56,13.34,16.56,9.06,0,15.62-14.29,15.62-23.92,0-12.54-8-21.33-12.39-21.33H669.5c-1.7,0-3.17-.08-4.24.58-6.28,3.9-10.24,10.73-11.15,19.26a1.881,1.881,0,1,1-3.74-.4c1-9.56,5.73-17.6,12.91-22.05a9.09,9.09,0,0,1,5-1.17h2.69c6.43,0,16.15,10,16.15,25.09C687.06,331.6,679.51,348,667.68,348Z"/>
    <path id="Path_15976" data-name="Path 15976" d="M684.37,348H667.68a1.88,1.88,0,0,1,0-3.76h16.69c9.07,0,15.63-14.29,15.63-23.92,0-11.44-6.66-19.77-11.27-21.15a1.88,1.88,0,1,1,.979-3.63c.034.009.068.019.1.03,6.71,2,14,12.05,14,24.75C703.76,331.6,696.21,348,684.37,348Z"/>
    <path id="Path_15977" data-name="Path 15977" d="M684.92,298.93h-16.7a1.88,1.88,0,0,1,0-3.76h16.7a1.88,1.88,0,1,1,0,3.76Z"/>
    <path id="Path_15978" data-name="Path 15978" d="M677.12,298.16H677a1.889,1.889,0,0,1-1.72-2c.11-1.28.19-2.58.27-3.9A65.5,65.5,0,0,1,677,280.38a1.881,1.881,0,0,1,3.65.91,62.38,62.38,0,0,0-1.35,11.17c-.08,1.35-.16,2.68-.27,4A1.881,1.881,0,0,1,677.12,298.16Z"/>
    <path id="Path_15979" data-name="Path 15979" d="M687.29,283a18.856,18.856,0,0,1-8.74-2.62,36.4,36.4,0,0,1-10.39,1.7c-1.33,0-8-.19-8-4a2.331,2.331,0,0,1,.12-.74c1.15-3.43,4.21-5.32,8.61-5.32a26,26,0,0,1,8.42,1.67,1.88,1.88,0,0,1,1.17,2.27l.53.34c1-.33,2.05-.67,3-1,3.51-1.2,6.55-2.24,9.32-2.24,3.9,0,4.21,2.9,4.21,3.78C695.6,279.65,692,283,687.29,283Zm-3.41-4.37a11.126,11.126,0,0,0,3.41.61,4.93,4.93,0,0,0,4.54-2.41,2.314,2.314,0,0,0-.44,0c-2.01-.06-4.56.77-7.51,1.77Zm-20-.11.34-.77a13.15,13.15,0,0,0,3.94.58,28.993,28.993,0,0,0,6.75-.87,2.089,2.089,0,0,1,0-.66,21,21,0,0,0-5.94-1c-2.97-.06-4.18.92-4.75,1.92Z"/>
  </g>
</svg>
