<svg xmlns="http://www.w3.org/2000/svg" width="136.267" height="195.72" viewBox="0 0 136.267 195.72">
  <g id="Group_9911" data-name="Group 9911" transform="translate(-982.623 -336.3)">
    <path id="Path_16027" data-name="Path 16027" d="M984.48,387.15a1.86,1.86,0,0,1-1.21-3.27c4.69-4,9.07-8,13.1-11.72a1.858,1.858,0,0,1,1.38-.48,1.812,1.812,0,0,1,1.3.65c.72.85,1.43,1.72,2.14,2.59a66.494,66.494,0,0,0,6.26,7c2.46-2,5-3.94,7.44-5.82,1.76-1.35,3.52-2.7,5.28-4.09a1.86,1.86,0,0,1,2.61.3c2.46,3.08,5.8,6.9,9.79,9.05a1.86,1.86,0,0,1-1.567,3.374,1.974,1.974,0,0,1-.193-.1,34.864,34.864,0,0,1-9.77-8.57q-1.95,1.5-3.89,3c-2.83,2.17-5.76,4.41-8.54,6.74a1.88,1.88,0,0,1-2.38,0,60.239,60.239,0,0,1-7.93-8.52l-.85-1c-3.66,3.36-7.58,6.91-11.76,10.49A1.839,1.839,0,0,1,984.48,387.15Z"/>
    <path id="Path_16028" data-name="Path 16028" d="M1079.26,532h-.12c-5-.32-10.29-.48-16.1-.48h-3.39a1.86,1.86,0,0,1-1.88-1.84v-4.85c0-5.85-.16-11.61-.33-16.56-6-5.32-11.78-9.9-16.92-14-16.47-13-28.37-22.39-28.37-40.95v-.12c0-.44,3-44,3.48-68.72a1.86,1.86,0,1,1,3.72.07h0c-.5,24.34-3.35,66.92-3.48,68.83,0,16.72,10.74,25.18,26.95,38,5.36,4.22,11.42,9,17.69,14.62a1.881,1.881,0,0,1,.62,1.33c.18,5.15.36,11.26.36,17.48v3H1063c5.13,0,9.85.12,14.36.36,0-6.57.47-14.74.63-17.93,0-.78.07-1.29.07-1.42v-.5a1.85,1.85,0,0,1,.58-1.38c4.43-4.19,9.07-7.91,13.56-11.51,12.31-9.86,22.94-18.37,22.94-31.83,0-.63-5.5-83-5.53-83.46-.36-4.16-.41-8.23-.41-11.65V358.34c0-8.94,0-13.86-1.89-15.77s-7-1.91-16.09-1.91h-2c-3.11,0-6.28.06-9.33.13s-6.26.13-9.41.13c-4.4,0-8.92-.2-13.71-.42-5.23-.24-10.64-.48-16.39-.48-23,0-23,.69-23,12.37a103.668,103.668,0,0,0,.74,10.55c.15,1.46.31,2.92.43,4.38a1.86,1.86,0,0,1-3.683.528,1.883,1.883,0,0,1-.017-.2c-.13-1.44-.28-2.88-.43-4.32a106.424,106.424,0,0,1-.75-10.94c0-14.59,2.49-16.09,26.7-16.09,5.83,0,11.29.24,16.56.48,4.75.22,9.23.42,13.54.42,3.11,0,6.27-.07,9.33-.13s6.26-.13,9.41-.13h2c10.44,0,15.7,0,18.72,3s3,8.14,3,18.39v10.15c0,3.34,0,7.31.4,11.36h-.11c.2,1.37.41,4.63,1,13.09l1.9,28.74c2.77,41.85,2.77,41.85,2.77,41.91,0,15.24-11.82,24.71-24.34,34.73-4.23,3.4-8.6,6.9-12.75,10.77a12.647,12.647,0,0,1-.06,1.33c-.18,3.37-.63,12.31-.63,19v.75a1.86,1.86,0,0,1-1.86,1.86Z"/>
    <path id="Path_16029" data-name="Path 16029" d="M1015.59,354.83a1.86,1.86,0,1,1-.07-3.72c11.26-.42,23.08-.62,37.19-.62,11.87,0,23.93.14,35.59.28q11.419.14,22.84.24a1.86,1.86,0,0,1,0,3.72q-11.46-.09-22.86-.24c-11.65-.14-23.7-.28-35.55-.28-14.06,0-25.83.19-37.05.62Z"/>
    <path id="Path_16030" data-name="Path 16030" d="M1030.5,348.44a3.8,3.8,0,0,1-2.21-.73A3.261,3.261,0,0,1,1027,345a1.841,1.841,0,0,1,1.83-1.84,2,2,0,0,1,.86.2h1.14c.37,0,2.2.14,2.2,2.84a2.271,2.271,0,0,1-2.285,2.255C1030.663,348.454,1030.581,348.449,1030.5,348.44Z"/>
    <path id="Path_16031" data-name="Path 16031" d="M1045.77,348.72a2.53,2.53,0,0,1-2.657-2.4c0-.061,0-.123,0-.184a2.887,2.887,0,0,1,.94-2.06,1.869,1.869,0,0,1,2.56-.08,2.46,2.46,0,0,1,2.33,2.37C1048.94,347.46,1048.11,348.72,1045.77,348.72Z"/>
    <path id="Path_16032" data-name="Path 16032" d="M1063.34,348a2.47,2.47,0,0,1-2.41-1.74,2.574,2.574,0,0,1-.11-.68,2.11,2.11,0,0,1,1.32-1.95,1.89,1.89,0,0,1,2.61,0,1.866,1.866,0,0,1,.38.55,2,2,0,0,1,.9,1.67,2.07,2.07,0,0,1-1.42,1.93A4.012,4.012,0,0,1,1063.34,348Z"/>
    <path id="Path_16033" data-name="Path 16033" d="M1081.83,348.83a4.636,4.636,0,0,1-.83-.1h-.2a2.191,2.191,0,0,1-1.48-.54,2.139,2.139,0,0,1-.73-1.61,2.529,2.529,0,0,1,1.27-2.14,1.94,1.94,0,0,1,2.43-.07,1.85,1.85,0,0,1,1.919,1.779c0,.02,0,.04,0,.061a2.39,2.39,0,0,1-2.149,2.609C1081.984,348.826,1081.907,348.83,1081.83,348.83Z"/>
    <path id="Path_16034" data-name="Path 16034" d="M1098.75,349.11h-.06a2.729,2.729,0,0,1-2.889-2.561,2.678,2.678,0,0,1,.009-.439,1.869,1.869,0,0,1,1.86-1.86,1.836,1.836,0,0,1,1,.29,1.906,1.906,0,0,1,.59-.09,2.358,2.358,0,0,1,1.47,3.95A2.638,2.638,0,0,1,1098.75,349.11Zm.79-2.91"/>
    <path id="Path_16035" data-name="Path 16035" d="M1060.1,510.28a1.86,1.86,0,0,1-.273-3.71,1.772,1.772,0,0,1,.273,0,41.573,41.573,0,0,0,4.5-.34,44.964,44.964,0,0,1,4.55-.33c1.51,0,3,.13,4.43.25a35.422,35.422,0,0,0,5.21.21,1.863,1.863,0,0,1,.21,3.72h0a41.834,41.834,0,0,1-5.74-.22c-1.42-.12-2.76-.24-4.11-.24a40.283,40.283,0,0,0-4.15.31A44.362,44.362,0,0,1,1060.1,510.28Z"/>
    <path id="Path_16036" data-name="Path 16036" d="M1065.39,453.77a27.31,27.31,0,0,1-27.345-27.275c0-.188,0-.377.005-.565,0-14.46,13.51-27.15,28.91-27.15.93,0,1.87.05,2.79.14,9.41,1,16.71,5.34,20.56,12.3a30.262,30.262,0,0,1,3.81,14.55,26.338,26.338,0,0,1-10.25,21.1C1078.55,451.13,1071.47,453.77,1065.39,453.77Zm1.57-50.33c-12.92,0-24.25,10.51-24.25,22.49a22.7,22.7,0,0,0,22.215,23.175c.155,0,.31,0,.465,0,8.13,0,24.08-7.05,24.08-23.34a25.545,25.545,0,0,0-3.24-12.3c-4.17-7.54-12.42-9.44-17-9.91q-1.111-.115-2.23-.12Z"/>
    <path id="Path_16037" data-name="Path 16037" d="M1066.45,431.88c-4.06,0-7.11-2.53-7.11-5.89a5.7,5.7,0,0,1,2.6-4.43,2.218,2.218,0,0,1,.87-.76,7.922,7.922,0,0,1,3.65-.83c4.22,0,6.36,1.73,6.36,5.14C1072.82,429,1070.14,431.88,1066.45,431.88Zm-1.53-6.72a2.29,2.29,0,0,0-.93.89c0,.57,1.2,1.17,2.46,1.17,1.09,0,1.71-.77,1.71-2.11a2.154,2.154,0,0,0,0-.32,3.993,3.993,0,0,0-1.22-.15,2.358,2.358,0,0,1-2.02.52Z"/>
    <path id="Path_16038" data-name="Path 16038" d="M1063.47,424.44a2.33,2.33,0,0,1-2.13-1.38,35.742,35.742,0,0,0-2.13-3.92,29.377,29.377,0,0,1-2.92-5.86,2.33,2.33,0,0,1,4.322-1.743,2.457,2.457,0,0,1,.088.263,26.166,26.166,0,0,0,2.51,4.95,41.657,41.657,0,0,1,2.39,4.42,2.33,2.33,0,0,1-1.18,3.07A2.289,2.289,0,0,1,1063.47,424.44Z"/>
  </g>
</svg>
