<svg xmlns="http://www.w3.org/2000/svg" width="208.246" height="152.222" viewBox="0 0 208.246 152.222">
  <g id="Group_9916" data-name="Group 9916" transform="translate(-718.537 -377.109)">
    <g id="Group_9908" data-name="Group 9908" transform="translate(3.794 31.439)">
      <path id="Path_16009" data-name="Path 16009" d="M846.65,413.63c-10.93,0-22.73-8.44-22.73-22.07,0-12.3,10.09-22.11,23.46-22.81h.84c12.51,0,21.95,9.83,21.95,22.85C870.17,399.49,862.31,413.63,846.65,413.63Zm1.57-41.15h-.63c-11.35.59-19.91,8.79-19.91,19.06,0,11.31,9.85,18.31,19,18.31,13.88,0,19.76-13.09,19.76-18.3-.03-10.86-7.85-19.07-18.22-19.07Z"/>
      <path id="Path_16010" data-name="Path 16010" d="M846.37,397.52a5.14,5.14,0,0,1-5.459-4.8c-.008-.117-.011-.234-.011-.351a5.829,5.829,0,0,1,2.86-5,3.621,3.621,0,0,1,3-1.41,5.549,5.549,0,0,1,5.708,5.387c0,.031,0,.062,0,.093A6.19,6.19,0,0,1,846.37,397.52Zm1.08-7.69a1.8,1.8,0,0,1-1.15.58,2,2,0,0,0-1.65,2c0,1.26,1.21,1.4,1.72,1.4a2.49,2.49,0,0,0,2.37-2.32A1.69,1.69,0,0,0,847.45,389.83Z"/>
      <path id="Path_16011" data-name="Path 16011" d="M846.09,388.34a1.87,1.87,0,0,1-1.87-1.77v-1.35c0-1.58.14-3.16.28-4.69s.26-3,.26-4.41a16.273,16.273,0,0,0-.22-2.84,1.88,1.88,0,0,1,3.673-.806q.016.078.027.156a19.815,19.815,0,0,1,.28,3.49c0,1.6-.14,3.2-.28,4.74s-.27,2.95-.27,4.36v1.13a1.88,1.88,0,0,1-1.753,2H846.2Z"/>
      <path id="Path_16012" data-name="Path 16012" d="M831.54,406.53a1.88,1.88,0,0,1-.92-3.52,36.8,36.8,0,0,0,6-4.57,49.248,49.248,0,0,1,5.07-4.05,1.875,1.875,0,0,1,2.08,3.12h0a46.358,46.358,0,0,0-4.67,3.75,39.776,39.776,0,0,1-6.64,5A1.9,1.9,0,0,1,831.54,406.53Z"/>
      <path id="Path_16013" data-name="Path 16013" d="M862.72,405.23a1.915,1.915,0,0,1-1.13-.37c-1-.72-1.92-1.43-2.89-2.15-3.26-2.41-6.63-4.9-9.68-7.55a1.88,1.88,0,1,1,2.352-2.933c.037.029.073.061.108.093,2.94,2.55,6.26,5,9.46,7.37l2.91,2.16a1.88,1.88,0,0,1-1.13,3.38Z"/>
      <path id="Path_16014" data-name="Path 16014" d="M791.94,452.87c-1.86,0-3.71-.08-5.76-.17a1.88,1.88,0,0,1-1.8-1.82c-.16-6.31-.52-12.73-.88-18.93-.47-8.42-1-17.13-1-25.78,0-35.42,5.13-60.5,71.49-60.5,54,0,58.22,35.39,58.22,85.38v1.51c0,4.87,0,9.26-.1,13.69a1.879,1.879,0,0,1-1.87,1.85c-61.95.2-117.62,4.72-118.17,4.76ZM788.09,449c1.31.05,2.55.09,3.78.09,2.39-.19,56.26-4.48,116.55-4.76.06-3.79.06-7.61.06-11.79v-1.51c0-49.3-3.79-81.62-54.46-81.62-63,0-67.73,22.47-67.73,56.74,0,8.54.49,17.2,1,25.57C787.58,437.4,787.91,443.23,788.09,449Z"/>
      <path id="Path_16015" data-name="Path 16015" d="M785.45,434.94a1.88,1.88,0,0,1,0-3.75c3-.05,6-.07,9-.09,10.72-.09,21.8-.18,32.8-1.29.37,0,75.61-3.71,78.72-3.71,1.36,0,2.8,0,4.52.1a1.881,1.881,0,0,1-.15,3.76h0c-1.67-.07-3.06-.11-4.37-.11-3,0-77.87,3.66-78.37,3.7-11.14,1.13-22.31,1.22-33.12,1.3Z"/>
      <path id="Path_16016" data-name="Path 16016" d="M794.31,455.13a3.259,3.259,0,0,1-3.319-3.2v-.061a3.389,3.389,0,0,1,1.23-2.55,1.921,1.921,0,0,1,1.5-.73,1.87,1.87,0,0,1,1.32.55,2.58,2.58,0,0,1,2.3,2.7A3.431,3.431,0,0,1,794.31,455.13Zm-2.47-4.67"/>
      <path id="Path_16017" data-name="Path 16017" d="M818.59,444.44a3.341,3.341,0,0,1-3.39-3.29v-.07a3,3,0,0,1,2-3l.15-.08a1.881,1.881,0,0,1,2,.2,2.711,2.711,0,0,1,2.43,2.73,3.25,3.25,0,0,1-2.979,3.5C818.731,444.436,818.66,444.439,818.59,444.44Z"/>
      <path id="Path_16018" data-name="Path 16018" d="M835.11,443.3a3.129,3.129,0,0,1-3.08-1.8,3.187,3.187,0,0,1,1-3.58,1.859,1.859,0,0,1,1.7-.51,1.649,1.649,0,0,1,.59-.1,2.77,2.77,0,0,1,2.994,2.527,2.915,2.915,0,0,1,.006.373,3,3,0,0,1-2.9,3.1Q835.264,443.31,835.11,443.3Z"/>
      <path id="Path_16019" data-name="Path 16019" d="M852.45,441.88a2.66,2.66,0,0,1-2.843-2.463c0-.059-.007-.118-.007-.177a4.5,4.5,0,0,1,.13-1V438a1.86,1.86,0,0,1,1.865-1.855c.045,0,.09,0,.135.005a3.666,3.666,0,0,1,1.4-.26c2.66,0,3,1.71,3,2.44A3.79,3.79,0,0,1,852.45,441.88Z"/>
      <path id="Path_16020" data-name="Path 16020" d="M873,441.36a3.181,3.181,0,0,1-3.24-2.9,2.909,2.909,0,0,1,2.4-2.85,4.424,4.424,0,0,1,.82-.07,3.18,3.18,0,0,1,3.28,2.2,2.7,2.7,0,0,1,.1.68C876.39,440.22,874.4,441.36,873,441.36Zm-.28-2.42a.842.842,0,0,0,.27.31.81.81,0,0,0,.53-.79c0-.31-.17-.86-.52-.86a.678.678,0,0,0-.18,0,2.466,2.466,0,0,0-.21.66Zm-.11-.65a.565.565,0,0,0,0,.13,1.289,1.289,0,0,0,0,.34.839.839,0,0,0,.06.17Z"/>
      <path id="Path_16021" data-name="Path 16021" d="M892.9,440.6a3.06,3.06,0,0,1-3.253-2.853c0-.069-.007-.138-.007-.207a2.689,2.689,0,0,1,2.25-2.73,3.984,3.984,0,0,1,.69-.05,3.44,3.44,0,0,1,3.61,2.79,2.043,2.043,0,0,1,0,.35C896.22,439.59,894.53,440.6,892.9,440.6Zm.32-2.55-.73.1a.55.55,0,0,0,.17.32,1.111,1.111,0,0,0,.56-.42Zm-.28-1.19a1.339,1.339,0,0,0-.48,1h.85a.794.794,0,0,0,.09-.36.831.831,0,0,0-.46-.64Z"/>
      <path id="Path_16022" data-name="Path 16022" d="M917.74,419.75h-2.37c-1.41,0-3.16-.05-5.34-.05a1.88,1.88,0,0,1,0-3.76h0c2.2,0,4,0,5.4.05s3,0,3.76,0v-1.41c0-2.56-.14-5.21-.28-7.78s-.28-5.31-.28-8v-1.55h-.87c-1.23,0-2.45.1-3.74.2a39.789,39.789,0,0,1-5.28.19,1.88,1.88,0,1,1-.007-3.76,1.851,1.851,0,0,1,.2.01,38.7,38.7,0,0,0,4.79-.18c1.31-.11,2.66-.22,4-.22h.42c1.7,0,2.73,0,3.55.86a3.56,3.56,0,0,1,.67,2.89v1.56c0,2.57.14,5.22.27,7.78s.29,5.32.29,8v1.11a3.71,3.71,0,0,1-.76,3.05C921.34,419.58,920.33,419.75,917.74,419.75Z"/>
    </g>
    <g id="Group_9909" data-name="Group 9909" transform="matrix(-0.53, -0.848, 0.848, -0.53, 942.595, 1462.693)">
      <path id="Path_16024" data-name="Path 16024" d="M945.45,373.77h-.2A1.82,1.82,0,0,1,944,373c-3.61-5-7.47-12.5-7.47-18.62a21.321,21.321,0,0,1,14.28-20,1.88,1.88,0,0,1,2.26.87c3.12,5.81,4.7,11.23,4.7,16.11,0,7.84-3.92,15.64-11,22A1.829,1.829,0,0,1,945.45,373.77Zm5-35.31a17.581,17.581,0,0,0-10.3,15.92c0,4.32,2.63,10.18,5.56,14.69,5.33-5.32,8.24-11.55,8.24-17.74a29.543,29.543,0,0,0-3.45-12.87Z"/>
      <path id="Path_16025" data-name="Path 16025" d="M945.51,362.49a1.86,1.86,0,0,1-1.86-1.86,44.848,44.848,0,0,1,.79-7.49c.17-1,.34-2.05.47-3.07a1.85,1.85,0,0,1,2.061-1.611h.009a1.87,1.87,0,0,1,1.62,2.07c-.14,1.07-.31,2.14-.49,3.22a42.387,42.387,0,0,0-.74,6.88A1.86,1.86,0,0,1,945.51,362.49Z"/>
    </g>
    <g id="Group_9910" data-name="Group 9910" transform="matrix(0.53, 0.848, -0.848, 0.53, 763.035, 490.387)">
      <path id="Path_16024-2" data-name="Path 16024" d="M8.92.007h-.2a1.82,1.82,0,0,0-1.25.77C3.86,5.777,0,13.277,0,19.4a21.321,21.321,0,0,0,14.28,20,1.88,1.88,0,0,0,2.26-.87c3.12-5.81,4.7-11.23,4.7-16.11,0-7.84-3.92-15.64-11-22A1.829,1.829,0,0,0,8.92.007Zm5,35.31A17.581,17.581,0,0,1,3.62,19.4c0-4.32,2.63-10.18,5.56-14.69,5.33,5.32,8.24,11.55,8.24,17.74a29.543,29.543,0,0,1-3.45,12.87Z" transform="translate(0 0)"/>
      <path id="Path_16025-2" data-name="Path 16025" d="M1.86,0A1.86,1.86,0,0,0,0,1.86,44.848,44.848,0,0,0,.79,9.35c.17,1,.34,2.05.47,3.07a1.85,1.85,0,0,0,2.061,1.611H3.33a1.87,1.87,0,0,0,1.62-2.07c-.14-1.07-.31-2.14-.49-3.22a42.387,42.387,0,0,1-.74-6.88A1.86,1.86,0,0,0,1.86,0Z" transform="translate(7.12 11.287)"/>
    </g>
    <path id="Path_16026" data-name="Path 16026" d="M954.34,439.24c-2.9,0-6.13-2.14-6.13-5.22,0-1.81,1.48-4.48,3.75-4.84a1.86,1.86,0,0,1,1.87-.42,4.254,4.254,0,0,0,1,.1,5.891,5.891,0,0,1,3.27.9,4.321,4.321,0,0,1,1.82,3.6,5.611,5.611,0,0,1-5.333,5.874C954.5,439.237,954.422,439.24,954.34,439.24Zm-.53-6.72a2.649,2.649,0,0,1-1.32.33,2.773,2.773,0,0,0-.56,1.18c0,.62,1.21,1.49,2.41,1.49a1.909,1.909,0,0,0,1.866-1.953,2.072,2.072,0,0,0-.016-.207.58.58,0,0,0-.26-.57,2.994,2.994,0,0,0-1.29-.21Z" transform="translate(-191.916 6.444)"/>
  </g>
</svg>
