<svg xmlns="http://www.w3.org/2000/svg" width="107.029" height="179.383" viewBox="0 0 107.029 179.383">
  <g id="Group_9907" data-name="Group 9907" transform="translate(-25.19 -280.847)">
    <path id="Path_15992" data-name="Path 15992" d="M90.5,299.55c-2.58,0-4.52-2.19-4.52-5.09,0-2.19,1.09-4.78,3.54-5.65a6.825,6.825,0,0,1,2.26-.4,4.89,4.89,0,0,1,5.076,4.7c0,.071,0,.143,0,.214C96.86,296.41,93.16,299.55,90.5,299.55Zm1.28-7.38a3.02,3.02,0,0,0-1,.18,2.3,2.3,0,0,0-1,2.11c0,.66.23,1.33.76,1.33.75,0,2.6-1.64,2.6-2.47a1.2,1.2,0,0,0-1.36-1.15Z"/>
    <path id="Path_15993" data-name="Path 15993" d="M109.34,291.54c-4.78,0-5.15-3.17-5.15-4.14a7.92,7.92,0,0,1,3.26-6.12,1.911,1.911,0,0,1,1.17-.41,8.245,8.245,0,0,1,4.41.9,4.212,4.212,0,0,1,2.24,3.92,5.89,5.89,0,0,1-5.93,5.85Zm-1.37-4a2.752,2.752,0,0,0,1.37.22,2.16,2.16,0,0,0,2.17-2.09c0-.43,0-.46-.41-.7a3.869,3.869,0,0,0-1.78-.35A4,4,0,0,0,108,287.4v.16Z"/>
    <path id="Path_15994" data-name="Path 15994" d="M35.07,410.57a9.49,9.49,0,0,1-9.874-9.09c0-.063,0-.127-.006-.19,0-5.09,4.63-9.57,9.9-9.57a8.919,8.919,0,0,1,2,.23,13.159,13.159,0,0,1,6.08,3.38c2.27,2.11,2.27,4.72,2.27,6.45v.35C45.44,405.85,40.56,410.57,35.07,410.57Zm0-15.09A6.221,6.221,0,0,0,29,401.29a5.77,5.77,0,0,0,6,5.526l.116-.006c3.75,0,6.61-3.32,6.61-4.68v-.35c0-1.68-.07-2.77-1.07-3.71a9.556,9.556,0,0,0-4.36-2.46,5.469,5.469,0,0,0-1.21-.13Z"/>
    <path id="Path_15995" data-name="Path 15995" d="M63.88,361.82a13.629,13.629,0,0,1-3-.42,1.879,1.879,0,0,1-1.46-1.9c0-1.44,1-8.88,14.31-13.67a1.91,1.91,0,0,1,1.69.21,1.872,1.872,0,0,1,.82,1.49v.38C76.21,354.93,70.1,361.82,63.88,361.82Zm-.34-3.77h.34c3.35,0,7-3.56,8.16-7.5-5.72,2.65-7.77,5.69-8.5,7.5Z"/>
    <path id="Path_15996" data-name="Path 15996" d="M65.11,341.65a1.218,1.218,0,0,1-.27,0c-5.64-.81-9.15-5.77-9.15-12.94,0-.92.06-1.9.16-2.91a1.885,1.885,0,0,1,2.22-1.65c5.84,1.12,9.91,7.2,9.91,11.95a10,10,0,0,1-1.2,4.55A1.9,1.9,0,0,1,65.11,341.65Zm-5.66-13.06v.1c0,1.78.35,7.3,4.55,8.88a5.443,5.443,0,0,0,.22-1.49A9.492,9.492,0,0,0,59.45,328.59Z"/>
    <path id="Path_15997" data-name="Path 15997" d="M60.71,316.56a2,2,0,0,1-1-.26,16.549,16.549,0,0,1-8-13.73,12.868,12.868,0,0,1,.39-3.18A1.88,1.88,0,0,1,54.27,298a11.2,11.2,0,0,1,9.53,10.78,17.872,17.872,0,0,1-1.36,6.64,1.86,1.86,0,0,1-1.14,1A1.744,1.744,0,0,1,60.71,316.56Zm-5.19-14.31v.32a12.79,12.79,0,0,0,4.2,9,13.017,13.017,0,0,0,.33-2.83A7.251,7.251,0,0,0,55.52,302.25Z"/>
    <path id="Path_15998" data-name="Path 15998" d="M80.7,320.5a2.043,2.043,0,0,1-.35,0,1.871,1.871,0,0,1-1.31-1,13.9,13.9,0,0,1-1.5-6.48,15.213,15.213,0,0,1,3.69-10,1.871,1.871,0,0,1,1.49-.64,1.911,1.911,0,0,1,1.44.77c1.46,2,2.88,4.17,2.88,7.38,0,3.46-1.72,6.67-5.12,9.56A1.917,1.917,0,0,1,80.7,320.5Zm1.9-12.88a11.886,11.886,0,0,0-1.3,5.4,12.155,12.155,0,0,0,.19,2.12,7.479,7.479,0,0,0,1.79-4.65A6.263,6.263,0,0,0,82.6,307.62Z"/>
    <path id="Path_15999" data-name="Path 15999" d="M90.53,342.19a10.639,10.639,0,0,1-4.48-.94,1.848,1.848,0,0,1-1-1.09,1.88,1.88,0,0,1,.1-1.47,15.92,15.92,0,0,1,13.73-8.36,13.1,13.1,0,0,1,3.44.45,1.945,1.945,0,0,1,1.27,2.51C101,340.31,94.16,342.19,90.53,342.19Zm-.71-3.79h.71A10.5,10.5,0,0,0,99,334.08h-.09A12.149,12.149,0,0,0,89.82,338.4Z"/>
    <path id="Path_16000" data-name="Path 16000" d="M111.43,322.63a13.971,13.971,0,0,1-1.71-.07,1.89,1.89,0,0,1-1.73-2c.44-7.94,6-13.65,14.44-14.9a1.907,1.907,0,0,1,1.44.39,1.869,1.869,0,0,1,.71,1.31c.06.65.08,1.43.08,2.36C124.66,317.45,119.34,322.63,111.43,322.63Zm9.48-12.8c-4.82,1.31-8,4.54-8.92,9,5.49-.19,8.88-3.6,8.92-9Z"/>
    <path id="Path_16001" data-name="Path 16001" d="M114.89,362.76a1.889,1.889,0,0,1-1.44-.67,13.241,13.241,0,0,1-3-8.27,15.781,15.781,0,0,1,5-11.25,1.85,1.85,0,0,1,1.36-.53,1.917,1.917,0,0,1,1.33.62,14.441,14.441,0,0,1,4,9.8c0,3.75-2.11,7.11-6.27,10A1.914,1.914,0,0,1,114.89,362.76Zm1.8-15.91a11.776,11.776,0,0,0-2.48,7,9.559,9.559,0,0,0,1.12,4.36q3.139-2.7,3.14-5.72A10.079,10.079,0,0,0,116.69,346.85Z"/>
    <path id="Path_16002" data-name="Path 16002" d="M105.64,419.55a1.764,1.764,0,0,1-.71-.14,1.88,1.88,0,0,1-1-2.45c5.48-13.36,10.09-24.43,14.5-34.84a1.889,1.889,0,0,1,1.66-1.14c2.61-.1,5.38-.22,8.18-.43-.16-2.23-.21-4.45-.25-6.63-27.67,1.27-50.81,1.33-73,.2,0,1.9-.14,4.46-.27,6.5,1.15,0,2.41.06,3.9.06h1.47a1.819,1.819,0,0,1,1.73,1.12c.42.95.69,1.61.95,2.24,1.14,2.78,2,5,16.18,31.9a1.881,1.881,0,1,1-3.33,1.75c-14.22-27.09-15.1-29.24-16.32-32.22l-.43-1h-.25c-2.43,0-4.29-.05-6-.18a1.871,1.871,0,0,1-1.73-2c.14-2,.38-5.77.38-8.22v-1.83a1.88,1.88,0,0,1,1.815-1.943c.062,0,.123,0,.185,0,23.18,1.26,47.28,1.21,76.54-.18a1.911,1.911,0,0,1,1.38.51,1.868,1.868,0,0,1,.59,1.34v.79c.05,3.08.1,6.27.4,9.36a1.87,1.87,0,0,1-.42,1.38,1.843,1.843,0,0,1-1.28.67c-3.08.28-6.14.44-9,.56-4.26,10.07-8.73,20.82-14,33.7A1.89,1.89,0,0,1,105.64,419.55Z"/>
    <path id="Path_16003" data-name="Path 16003" d="M105.15,432.2H105a1.87,1.87,0,0,1-1.671-2.05v-.01a80.55,80.55,0,0,0,.57-8.33v-1.62l-1.27.06c-1.34.08-3.18.19-5.78.19-3,0-6.15-.09-9.15-.18s-6-.18-9-.18h-.94a.751.751,0,0,0,0,.15,63.483,63.483,0,0,1-.42,9.49,1.88,1.88,0,0,1-2.077,1.66h0a1.861,1.861,0,0,1-1.653-2.046l0-.024a57.707,57.707,0,0,0,.39-9c0-1.5-.07-2.5.75-3.32a3.421,3.421,0,0,1,2.8-.71h1.14c3,0,6.12.1,9.1.18s6,.18,9,.18c2.49,0,4.27-.1,5.57-.18,2.2-.13,3.42-.2,4.38.73s.88,2,.85,3.39v1.19a83.889,83.889,0,0,1-.59,8.72A1.879,1.879,0,0,1,105.15,432.2Z"/>
    <path id="Path_16004" data-name="Path 16004" d="M66.67,460.23a1.89,1.89,0,0,1-1.88-1.8c-.15-3.4-.25-6.83-.36-10.26-.18-5.76-.36-11.72-.77-17.5a1.88,1.88,0,0,1,1.756-2c.038,0,.076,0,.114,0h50.85a1.881,1.881,0,0,1,1.88,1.87c0,8.31.09,17.22.55,26.09a1.9,1.9,0,0,1-.5,1.37,1.84,1.84,0,0,1-1.32.6Zm.87-27.82c.33,5.21.49,10.51.65,15.65.08,2.79.17,5.58.28,8.35L115,454.9c-.35-7.65-.43-15.27-.45-22.48Z"/>
    <path id="Path_16005" data-name="Path 16005" d="M80.37,447.08a3.759,3.759,0,0,1-3.65-3.58c0-1.69,1.34-3.57,3.14-3.57a4.371,4.371,0,0,1,1.49.34l.23.15a3.839,3.839,0,0,1,2,2.6,3.232,3.232,0,0,1,0,.44A3.56,3.56,0,0,1,80.37,447.08Z"/>
    <path id="Path_16006" data-name="Path 16006" d="M101,446.84a3.6,3.6,0,0,1-3.852-3.328c0-.048-.006-.1-.008-.142a4,4,0,0,1,.68-2.21,1.87,1.87,0,0,1,1.61-1.71c3.36-.48,5.59,1.78,5.59,3.89S103.36,446.84,101,446.84Z"/>
    <path id="Path_16007" data-name="Path 16007" d="M113.17,385.54h-.71c-8-.39-29.12-1.31-50.76-1.31a1.88,1.88,0,0,1,0-3.76c21.72,0,42.86.92,50.94,1.32h.58c1.92,0,3.91,0,5.87-.12a1.88,1.88,0,0,1,.15,3.75C117.24,385.5,115.19,385.54,113.17,385.54Z"/>
    <path id="Path_16008" data-name="Path 16008" d="M60.15,449.48a10.2,10.2,0,0,1-2.95-.55,8.906,8.906,0,0,0-2-.44,1.88,1.88,0,0,1-.1-3.759,1.851,1.851,0,0,1,.235.009,11.355,11.355,0,0,1,2.94.59,7.283,7.283,0,0,0,1.88.4,1.88,1.88,0,1,1,.274,3.75,1.793,1.793,0,0,1-.274,0ZM44.7,445a1.908,1.908,0,0,1-1-.32,24.212,24.212,0,0,1-4.14-3.5,1.88,1.88,0,0,1,2.614-2.7,1.673,1.673,0,0,1,.116.122,20.614,20.614,0,0,0,3.5,3,1.87,1.87,0,0,1,.514,2.594l0,.006A1.85,1.85,0,0,1,44.7,445Zm-9.38-12.91a1.89,1.89,0,0,1-1.79-1.31,35.5,35.5,0,0,1-1.19-5.15,1.88,1.88,0,0,1,3.68-.77c.013.063.023.126.03.19a30.479,30.479,0,0,0,1.07,4.59,1.89,1.89,0,0,1-1.245,2.365,1.868,1.868,0,0,1-.555.085ZM33.79,416a1.9,1.9,0,0,1-1.883-1.917l0-.083v-.3c0-1.59.08-3.15.08-4.66a1.88,1.88,0,1,1,3.76,0c0,1.54,0,3.13-.08,4.76v.3a1.88,1.88,0,0,1-1.86,1.9Z"/>
  </g>
</svg>
