<svg xmlns="http://www.w3.org/2000/svg" width="104.45" height="194.586" viewBox="0 0 104.45 194.586">
  <g id="Group_9915" data-name="Group 9915" transform="translate(-157.13 -240.8)">
    <path id="Path_16075" data-name="Path 16075" d="M164.037,253.407c-4.324,0-6.907-3.12-6.907-6.071,0-3.089,2.427-6.527,5.915-6.527a6.575,6.575,0,0,1,3.532.955,6.676,6.676,0,0,1,3.4,5.572A6.164,6.164,0,0,1,164.037,253.407Zm-.992-10.252c-2.015,0-3.575,2.246-3.575,4.18,0,1.834,1.71,3.744,4.567,3.744a3.8,3.8,0,0,0,3.594-3.744,4.568,4.568,0,0,0-4.586-4.18Z" transform="translate(0 -0.003)"/>
    <path id="Path_16076" data-name="Path 16076" d="M242.255,389.958a1.113,1.113,0,0,1-.537-.137l-23.186-12a1.173,1.173,0,0,1-.624-1.017v-2.352c-2.334-.081-4.711-.106-7.013-.131-1.8,0-3.644-.037-5.478-.081v2.134a1.179,1.179,0,0,1-.693,1.03c-7.238,3.232-26.368,11.724-27.242,12.036a1.173,1.173,0,0,1-.866-2.181l.08-.028c.824-.312,17.421-7.656,26.393-11.668v-.424a15.388,15.388,0,0,0-.081-1.984,1.167,1.167,0,0,1,1.048-1.274,1.084,1.084,0,0,1,.156,0c2.228.069,4.5.094,6.707.119,2.708,0,5.51.056,8.261.168a1.173,1.173,0,0,1,1.121,1.223q0,.028,0,.056c0,.349-.044.73-.044,1.179v1.323a.676.676,0,0,0,0,.112l22.562,11.693a1.173,1.173,0,0,1-.537,2.215Z" transform="translate(-7.049 -49.288)"/>
    <path id="Path_16077" data-name="Path 16077" d="M227.643,371.644c-3.962,0-6.333-3.5-6.333-6.863a6.24,6.24,0,0,1,5.684-6.121h.437c3.993,0,7.113,2.87,7.113,6.539A6.577,6.577,0,0,1,227.643,371.644Zm-.524-10.657a3.869,3.869,0,0,0-3.463,3.781c0,1.753,1.079,4.53,3.987,4.53a4.273,4.273,0,0,0,4.561-4.124c0-2.739-2.652-4.318-5.085-4.187Z" transform="translate(-24.135 -44.321)"/>
    <path id="Path_16078" data-name="Path 16078" d="M170.375,407.355a1.173,1.173,0,0,1-1.173-1.123l-.05-1.161c-.081-1.947-.162-3.962-.162-5.977v-.2a1.173,1.173,0,0,1,1.167-1.161l74.743-.143a1.165,1.165,0,0,1,.849.362,1.179,1.179,0,0,1,.324.867c-.069,1.366-.1,2.814-.1,4.7v2.371a1.14,1.14,0,0,1-.337.83,1.154,1.154,0,0,1-.83.349Zm.967-7.275c0,1.641.087,3.288.156,4.9,0,.031,72.129-.243,72.129-.243v-1.21c0-1.379,0-2.533.05-3.588Z" transform="translate(-4.46 -58.961)"/>
    <path id="Path_16079" data-name="Path 16079" d="M183.365,406.5h-1.972a1.173,1.173,0,0,1,0-2.346h1.972a1.173,1.173,0,1,1,0,2.346Z" transform="translate(-8.683 -61.427)"/>
    <path id="Path_16080" data-name="Path 16080" d="M194.919,405.711a3.374,3.374,0,0,1-.668-.062,1.173,1.173,0,1,1,.328-2.323,1.215,1.215,0,0,1,.134.027,2.228,2.228,0,0,0,.817-.062,6.462,6.462,0,0,1,1.073-.112,1.173,1.173,0,0,1,.171,2.34,1.118,1.118,0,0,1-.171,0,3.935,3.935,0,0,0-.668.081A5.354,5.354,0,0,1,194.919,405.711Z" transform="translate(-13.58 -61.061)"/>
    <path id="Path_16081" data-name="Path 16081" d="M215.026,405.518h-1.785a1.173,1.173,0,0,1-.171-2.34,1.118,1.118,0,0,1,.171,0h1.816a1.173,1.173,0,1,1,.171,2.34,1.11,1.11,0,0,1-.171,0Z" transform="translate(-20.627 -61.061)"/>
    <path id="Path_16082" data-name="Path 16082" d="M231.32,406.163a1.422,1.422,0,0,1-.231,0,10.406,10.406,0,0,0-2.047-.131,1.173,1.173,0,0,1,0-2.346h0a12.385,12.385,0,0,1,2.5.175,1.173,1.173,0,0,1-.225,2.321Z" transform="translate(-26.602 -61.251)"/>
    <path id="Path_16083" data-name="Path 16083" d="M247.379,406.187h-.836a1.173,1.173,0,1,1,0-2.346h.53a1.168,1.168,0,0,0,.624-.05,1.173,1.173,0,1,1,1.137,2.052c-.029.016-.059.031-.089.045A2.967,2.967,0,0,1,247.379,406.187Z" transform="translate(-33.182 -61.237)"/>
    <path id="Path_16084" data-name="Path 16084" d="M269.15,406.006h-2.427a1.173,1.173,0,0,1,0-2.346h2.427a1.173,1.173,0,0,1,0,2.346Z" transform="translate(-40.771 -61.243)"/>
    <path id="Path_16085" data-name="Path 16085" d="M287.324,406.246H285.2a1.173,1.173,0,1,1,0-2.346h2.121a1.173,1.173,0,0,1,0,2.346Z" transform="translate(-47.72 -61.333)"/>
    <path id="Path_16086" data-name="Path 16086" d="M183.718,484.618c-3.544,0-5.616-.168-7-1.522C175,481.392,175,478.217,175,472.451v-1.809c0-2.5-.306-6.963-.661-12.148-.505-7.369-1.129-16.535-1.129-23.841q0-2.333.031-4.655v-4.63c0-2.377,0-4.33-.112-6.146A1.173,1.173,0,0,1,174.251,418h.045a1.185,1.185,0,0,1,1.248,1.117c.075,1.872.112,3.831.112,6.24q0,2.333-.031,4.648v4.636c0,7.225.624,16.354,1.123,23.71.356,5.229.668,9.74.668,12.3v1.809c0,5.235.044,8.012,1.023,8.985.88.874,3.226.855,7.113.83h2.465c4.449,0,9.066-.181,13.521-.362s8.692-.343,12.779-.343c3.12,0,6.314.087,9.4.168s6.24.169,9.359.169h.112c7.094,0,10.245-.081,10.763-2.028a1.175,1.175,0,1,1,2.265.624h0c-1,3.744-5.235,3.744-12.922,3.744h-.218c-3.12,0-6.333-.087-9.428-.168s-6.24-.168-9.328-.168c-4.043,0-8.242.162-12.685.343s-9.116.362-13.615.362h-4.3Z" transform="translate(-6.016 -66.635)"/>
    <path id="Path_16087" data-name="Path 16087" d="M287.72,477.62a1.173,1.173,0,0,1-1.173-1.129c-.2-5.74-.287-11.855-.287-19.342,0-5.173.044-10.432.087-15.518s.087-10.32.087-15.462c0-3.12,0-5.946-.05-8.635a1.173,1.173,0,0,1,2.346,0h0c0,2.7.05,5.528.05,8.66,0,5.154-.044,10.4-.087,15.48s-.1,10.339-.1,15.505c0,7.406.094,13.515.287,19.23a1.168,1.168,0,0,1-1.122,1.21h-.039Z" transform="translate(-48.559 -66.019)"/>
    <path id="Path_16088" data-name="Path 16088" d="M209.419,474.959c-9.983,0-10.919-3.55-10.919-12.947v-.767c0-4.567,0-7.868,2.121-9.983,1.491-1.491,3.893-2.19,7.556-2.19.718,0,1.435,0,2.153.05h1.048a1.2,1.2,0,0,1,.792-.5,50.867,50.867,0,0,1,7.7-.543c18.8,0,20.041,1.547,20.041,12.286C239.924,472.364,237.3,474.959,209.419,474.959Zm-1.248-23.56c-3,0-4.873.474-5.9,1.5-1.448,1.448-1.441,4.368-1.435,8.342v.774c0,9,.624,10.607,8.573,10.607,28.146,0,28.146-2.839,28.146-12.242,0-4.8-.075-6.97-1.872-8.161-2.215-1.485-7.487-1.778-15.848-1.778a49.609,49.609,0,0,0-6.47.393,1.173,1.173,0,0,1-1.054.655c-.686,0-1.385,0-2.09-.044S208.883,451.4,208.171,451.4Z" transform="translate(-15.557 -77.947)"/>
    <path id="Path_16089" data-name="Path 16089" d="M228.609,471.994c-2.826,0-5.759-1.635-5.759-4.368a6.5,6.5,0,0,1,4.124-5.435,1.167,1.167,0,0,1,1.117-.262,5.3,5.3,0,0,1,.718-.05,1.173,1.173,0,0,1,1.123.83c2.7,1.335,4.074,2.995,4.074,4.948C234.006,469.442,232.3,471.994,228.609,471.994Zm-.718-7.625a4.144,4.144,0,0,0-2.7,3.263c0,1.2,1.766,2.015,3.413,2.015,2.327,0,3.051-1.454,3.051-1.984.019-1.154-1.3-2.29-3.769-3.294Z" transform="translate(-24.714 -83.137)"/>
    <path id="Path_16090" data-name="Path 16090" d="M219.207,461.707a1.2,1.2,0,0,1-.718-.243c-2.827-2.171-5.665-3.987-8.673-5.909l-1.666-1.067a1.173,1.173,0,0,1,1.248-1.972l1.653,1.061c3.057,1.953,5.934,3.794,8.841,6.027a1.173,1.173,0,0,1-.711,2.1Z" transform="translate(-19.019 -79.569)"/>
    <path id="Path_16091" data-name="Path 16091" d="M236.295,461.767a1.173,1.173,0,0,1-.867-1.959,99.767,99.767,0,0,1,7.375-7.637,1.173,1.173,0,1,1,1.6,1.718l-.026.023a97.886,97.886,0,0,0-7.207,7.487A1.173,1.173,0,0,1,236.295,461.767Z" transform="translate(-29.33 -79.367)"/>
    <path id="Path_16092" data-name="Path 16092" d="M229.562,484.367a1.167,1.167,0,0,1-1.161-1.042,12.848,12.848,0,0,1-.081-1.51c0-.948.087-1.872.168-2.752s.162-1.747.162-2.639a1.173,1.173,0,0,1,2.346,0c0,1-.087,1.947-.175,2.858s-.162,1.7-.162,2.533a11.427,11.427,0,0,0,.069,1.248,1.173,1.173,0,0,1-1.036,1.292Z" transform="translate(-26.771 -88.165)"/>
    <path id="Path_16093" data-name="Path 16093" d="M191.59,541.426a1.173,1.173,0,0,1-1.167-1.117c0-.655-.044-1.3-.044-1.953,0-1.666.087-3.332.168-4.942s.168-3.2.168-4.792a30.937,30.937,0,0,0-.287-4.443,1.176,1.176,0,0,1,2.327-.337h0a33.821,33.821,0,0,1,.306,4.779c0,1.647-.087,3.307-.175,4.911s-.168,3.213-.168,4.823c0,.624,0,1.248.044,1.841a1.173,1.173,0,0,1-1.094,1.247h-.016Z" transform="translate(-12.504 -106.059)"/>
    <path id="Path_16094" data-name="Path 16094" d="M191.617,532.194a1.173,1.173,0,0,1-.406-2.271,33.173,33.173,0,0,0,7.55-4.517c1.1-.8,2.252-1.635,3.413-2.377A1.173,1.173,0,1,1,203.422,525c-1.111.711-2.178,1.485-3.307,2.3A34.831,34.831,0,0,1,192,532.119,1.17,1.17,0,0,1,191.617,532.194Z" transform="translate(-12.53 -106.036)"/>
    <path id="Path_16095" data-name="Path 16095" d="M273.42,540.229h-.056a1.167,1.167,0,0,1-1.113-1.219l0-.029c.031-.705.05-1.454.05-2.277,0-1.323-.044-2.689-.087-4.012s-.087-2.758-.087-4.143a36.913,36.913,0,0,1,.362-5.616,1.173,1.173,0,0,1,2.338.2,1.248,1.248,0,0,1-.023.151,34.819,34.819,0,0,0-.337,5.266c0,1.348.05,2.727.087,4.068s.094,2.727.094,4.087c0,.867,0,1.647-.056,2.4A1.173,1.173,0,0,1,273.42,540.229Z" transform="translate(-43.244 -105.692)"/>
    <path id="Path_16096" data-name="Path 16096" d="M264.559,531.017a1.117,1.117,0,0,1-.524-.125,32.515,32.515,0,0,1-5.7-3.875,39.856,39.856,0,0,0-3.906-2.839,1.177,1.177,0,0,1,1.248-2,41.615,41.615,0,0,1,4.131,3,30.274,30.274,0,0,0,5.3,3.613,1.173,1.173,0,0,1-.524,2.221Z" transform="translate(-36.38 -105.746)"/>
    <path id="Path_16097" data-name="Path 16097" d="M288.381,439.269a1.173,1.173,0,1,1-.171-2.34,1.11,1.11,0,0,1,.171,0c2.4,0,5.085-.512,5.534-1.036a21.118,21.118,0,0,1,.368-3.344,18.871,18.871,0,0,0,.312-2.77c0-2.072-.693-2.733-2.851-2.733a24.2,24.2,0,0,0-3.026.256h-.168a1.173,1.173,0,1,1-.331-2.322l.037-.005h.168a27,27,0,0,1,3.319-.275c3.444,0,5.2,1.71,5.2,5.079a19.479,19.479,0,0,1-.349,3.12,19.961,19.961,0,0,0-.331,3.039C296.262,436.954,295.495,439.269,288.381,439.269Z" transform="translate(-48.883 -69.155)"/>
    <path id="Path_16098" data-name="Path 16098" d="M236.565,308.335h-.119a1.173,1.173,0,0,1-1.048-1.285c.718-6.826,5.36-14.214,12.548-14.469h.094a1.492,1.492,0,0,1,1.017.468c5.559,4.461,9.777,5.4,12.336,5.4,5.934,0,7.363-1.972,8.879-4.056s3.319-4.574,9.222-4.574c1.21,0,2.415.094,3.581.181.774.056,1.516.112,2.246.143v-.711a54.235,54.235,0,0,0-.487-6.24c-.081-.686-.162-1.373-.231-2.059h-2.5a61.76,61.76,0,0,1-13.29-1.086c-4.667-1-6.059-4.062-7.069-6.3-.842-1.872-1.248-2.5-2.34-2.5-1.778,0-2.608,1.716-3.663,4.33a10.482,10.482,0,0,1-2.022,3.656c-2.5,2.359-5.8,3.076-9.359,3.831-7.675,1.653-15.6,3.357-15.6,22.993v1.017a1.173,1.173,0,0,1-2.346,0v-1.048c0-21.526,9.678-23.61,17.471-25.283,3.195-.686,6.24-1.335,8.2-3.238a9.439,9.439,0,0,0,1.473-2.833c.986-2.446,2.34-5.8,5.834-5.8,2.714,0,3.65,2.065,4.474,3.881.942,2.078,1.916,4.224,5.422,4.992a60.2,60.2,0,0,0,12.8,1.03h3.525a1.173,1.173,0,0,1,1.173,1.067c.094,1.029.212,2.053.331,3.07a56.214,56.214,0,0,1,.505,6.539,17.474,17.474,0,0,1-.075,2,1.173,1.173,0,0,1-1.167,1.079c-1.186,0-2.377-.087-3.532-.175s-2.284-.175-3.407-.175c-4.7,0-5.865,1.591-7.325,3.606-1.71,2.352-3.65,5.023-10.776,5.023-4.187,0-8.929-2.022-13.727-5.846-5.665.456-9.359,6.633-9.94,12.348A1.173,1.173,0,0,1,236.565,308.335Z" transform="translate(-26.056 -10.556)"/>
    <path id="Path_16099" data-name="Path 16099" d="M229.936,337.249c-6.115,0-9.216-1.054-9.216-3.12,0-4.7,3.8-4.7,5.229-4.7h.755a1.146,1.146,0,0,1,.468-.062c.98.062,2.015.037,3.057,0h1.641c5.722,0,8.81,2.084,8.81,4.043C240.68,334.3,239.9,337.249,229.936,337.249Zm-6.863-3.313c.705.524,3.806.967,6.863.967,3.594,0,7.668-.73,8.355-1.479-.343-.437-2.04-1.71-6.42-1.71h-.418a1.147,1.147,0,0,1-1.1.505c-.455-.05-.917-.112-1.391-.181a22.792,22.792,0,0,0-3.014-.281c-2.1-.006-2.833.312-2.876,2.165Z" transform="translate(-23.913 -33.305)"/>
    <path id="Path_16100" data-name="Path 16100" d="M274.917,255.15c-2.228,0-6.308-2.04-6.308-5.366a6.077,6.077,0,0,1,5.616-6.24,3.85,3.85,0,0,1,.537,0,5.861,5.861,0,0,1,6.034,5.859,5.784,5.784,0,0,1-5.821,5.747Zm-.437-9.3a3.743,3.743,0,0,0-3.525,3.937c0,1.622,2.658,3.02,3.962,3.02a3.425,3.425,0,0,0,3.536-3.311c0-.048,0-.1,0-.145a3.547,3.547,0,0,0-3.694-3.513,2.088,2.088,0,0,0-.293.012Z" transform="translate(-41.92 -1.028)"/>
    <path id="Path_16101" data-name="Path 16101" d="M222.251,252.98c-5.26,0-9.1-.206-11.194-2.3a5.372,5.372,0,0,1-1.491-3.987c0-2.72,1.928-5.9,7.363-5.9a46.9,46.9,0,0,1,8.848,1.048,101.719,101.719,0,0,0,20.8,1.909c.724,0,1.391,0,2.047-.056a1.173,1.173,0,0,1,.137,2.34c-.7.037-1.41.062-2.184.062a103.675,103.675,0,0,1-21.214-1.947,44.082,44.082,0,0,0-8.423-1.011c-3.12,0-4.992,1.323-4.992,3.55a3.057,3.057,0,0,0,.8,2.327c1.654,1.647,6.19,1.629,11.443,1.6h2.084c5.466,0,10.782-.512,16.4-1.061l4.118-.387a1.173,1.173,0,0,1,.212,2.334l-4.106.387c-5.428.53-11.05,1.073-16.628,1.073h-4.018Z" transform="translate(-19.716 0)"/>
    <path id="Path_16102" data-name="Path 16102" d="M278.293,265.52a1.173,1.173,0,0,1-1.173-1.167v-5.21a1.173,1.173,0,0,1,2.346,0h0v5.21A1.173,1.173,0,0,1,278.293,265.52Z" transform="translate(-45.122 -6.457)"/>
    <path id="Path_16103" data-name="Path 16103" d="M187.52,296.2h-.131a29.336,29.336,0,0,1-3.2-.518,1.173,1.173,0,1,1,.4-2.312q.051.009.1.022a28.03,28.03,0,0,0,2.958.48,1.173,1.173,0,0,1-.125,2.334Zm-9.6-3.032A1.123,1.123,0,0,1,177.3,293a18.929,18.929,0,0,1-2.683-1.953,1.173,1.173,0,1,1,1.463-1.834c.027.022.054.045.079.069a17.272,17.272,0,0,0,2.352,1.716,1.167,1.167,0,0,1-.624,2.171Zm-6.826-7.331a1.167,1.167,0,0,1-1.036-.624,27.017,27.017,0,0,1-1.36-2.97,1.173,1.173,0,0,1,2.19-.842,24.539,24.539,0,0,0,1.248,2.708,1.173,1.173,0,0,1-.474,1.585,1.2,1.2,0,0,1-.568.144Zm-3.12-9.615a1.172,1.172,0,0,1-1.154-.967c-.181-1-.337-2.065-.462-3.157a1.173,1.173,0,0,1,2.314-.384,1.063,1.063,0,0,1,.013.109c.125,1.048.268,2.065.443,3.026a1.167,1.167,0,0,1-.944,1.353h0Zm-.93-10.108a1.173,1.173,0,0,1-1.173-1.142c0-1.042-.037-2.1-.037-3.157a1.173,1.173,0,0,1,2.34-.171,1.118,1.118,0,0,1,0,.171c0,1.042,0,2.072.044,3.12a1.179,1.179,0,0,1-1.179,1.179h.006Z" transform="translate(-3.273 -7.428)"/>
    <path id="Path_16104" data-name="Path 16104" d="M167.618,429.14a1.173,1.173,0,0,1,.037,2.346c-2.39.037-5.073.624-5.516,1.123a22.01,22.01,0,0,1-.306,3.351,17.789,17.789,0,0,0-.268,2.777c.031,2.072.736,2.72,2.9,2.683a24.15,24.15,0,0,0,3.02-.306h.168a1.173,1.173,0,0,1,.414,2.309c-.027.005-.056.009-.084.012h-.168a27.435,27.435,0,0,1-3.313.331c-3.444.056-5.222-1.622-5.279-4.992a21,21,0,0,1,.293-3.151,19.083,19.083,0,0,0,.281-3.039C159.782,431.586,160.512,429.258,167.618,429.14Z" transform="translate(-0.786 -70.825)"/>
  </g>
</svg>
