<svg xmlns="http://www.w3.org/2000/svg" width="37.29" height="63.701" viewBox="0 0 37.29 63.701">
  <g id="Group_9914" data-name="Group 9914" transform="translate(-1419.64 -343.5)">
    <path id="Path_16068" data-name="Path 16068" d="M1427.77,344.84a1.408,1.408,0,0,0-.28,1.12,13.444,13.444,0,0,1,.27,2.19.76.76,0,0,1-.91,1.18c-4.57.22-7.21,3.28-7.21,18.34a164.9,164.9,0,0,0,1.67,20.28c.67,5.4,1.35,11,1.56,16.52h2.82c-.22-5.67-.91-11.34-1.59-16.83-.28-2.19-.55-4.41-.79-6.64a1.469,1.469,0,0,1-.7.19,1.421,1.421,0,0,1-.63-.15,1.4,1.4,0,0,1-.638-1.874l.008-.016a9.823,9.823,0,0,1,1.55-2.2c-.27-3.08-.45-6.17-.45-9.24,0-15.32,2.84-15.45,4.53-15.53a5.971,5.971,0,0,0,1.42-.19h-.12a1.41,1.41,0,0,1-.11-2.81c.79-.06,1.57-.11,2.36-.15a7.1,7.1,0,0,0,0-.85,8.732,8.732,0,0,0-.08-1.13c4.77-.28,9.61-.46,14.3-.63l2.5-.1v.07a7.716,7.716,0,0,0,.26,2.16c.79-.06,1.59-.13,2.38-.22a1.42,1.42,0,0,1,1.56,1.24,1.388,1.388,0,0,1-1,1.5l.44.07c1.17.15,2.17.28,2.17,5a23.934,23.934,0,0,1-.09,2.52,26.138,26.138,0,0,0-.1,2.68V375.2a5.448,5.448,0,0,1,1.541,1.07,1.4,1.4,0,0,1-1.551,2.28v1.26a197.746,197.746,0,0,0,1.14,24,1.035,1.035,0,0,0,.07.29h2.66a1.42,1.42,0,0,0,.061-.59,194.98,194.98,0,0,1-1.12-23.65V361.37a24.134,24.134,0,0,1,.089-2.51,26.18,26.18,0,0,0,.09-2.67c0-6-1.77-7.38-4.62-7.75-1-.13-1.2-.15-1.2-2a13.179,13.179,0,0,1,.089-1.39,1.416,1.416,0,0,0-.38-1.11,1.458,1.458,0,0,0-1.079-.44l-4,.16c-5.21.19-10.6.39-15.9.73A1.41,1.41,0,0,0,1427.77,344.84Z"/>
    <path id="Path_16069" data-name="Path 16069" d="M1450.26,351.1a.971.971,0,0,0,.25-.06,1.39,1.39,0,0,0,1-1.5,1.421,1.421,0,0,0-1.56-1.24c-.79.09-1.59.16-2.38.22-3.23.25-6.45.29-9.59.32-2.43,0-4.92,0-7.44.16-.79,0-1.57.09-2.36.15a1.41,1.41,0,0,0,.11,2.81h.11c3.23-.25,6.47-.27,9.6-.3A116.445,116.445,0,0,0,1450.26,351.1Z"/>
    <path id="Path_16070" data-name="Path 16070" d="M1423.87,380.37c1-1.92,3-3.42,4.64-3.42a2.778,2.778,0,0,1,2.31,1.34,1.411,1.411,0,0,0,2.45-.29,3,3,0,0,1,2.84-1.75c1,0,2.19.32,3,2.8a1.41,1.41,0,0,0,2.57.23,3.338,3.338,0,0,1,3-1.79,3.149,3.149,0,0,1,2.6,1.36,1.41,1.41,0,0,0,2.48-.36c.35-1.05.72-1.05,1.08-1.05a2.431,2.431,0,0,1,1.7.75,1.414,1.414,0,0,0,2-2,5.458,5.458,0,0,0-1.54-1.07,4.993,4.993,0,0,0-2.15-.5,3.579,3.579,0,0,0-2.71,1.13,5.94,5.94,0,0,0-3.45-1.08,6.1,6.1,0,0,0-3.84,1.36,5.39,5.39,0,0,0-4.7-2.61,6,6,0,0,0-4.34,1.82,5.266,5.266,0,0,0-3.26-1.11,8,8,0,0,0-5.61,2.77,9.822,9.822,0,0,0-1.55,2.2,1.4,1.4,0,0,0,.59,1.89l.02.01a1.421,1.421,0,0,0,.63.15,1.471,1.471,0,0,0,.7-.19A1.392,1.392,0,0,0,1423.87,380.37Z"/>
    <path id="Path_16071" data-name="Path 16071" d="M1456.77,404.61a2.248,2.248,0,0,1,.06-.63h-2.66l-28.46.41h-2.82c.07.94.11,1.87.09,2.81l33.95-.48A17.7,17.7,0,0,1,1456.77,404.61Z"/>
  </g>
</svg>
